<svg version="1.1" id="Layer_1" xmlns="http://www.w3.org/2000/svg" xmlns:xlink="http://www.w3.org/1999/xlink" x="0px" y="0px"
	 width="100%" viewBox="0 0 500 500" enable-background="new 0 0 500 500" xml:space="preserve">
<path d="M272 19c5.14 4.206 9.797 10.332 11 17 .795 9.714-.377 17.213-6.687 24.813-3.76 3.974-7.242 6.176-12.313 8.187h-2v50l20 2c7.278 1.629 14.122 3.19 21 6l-.027-1.73c-.089-5.97-.149-11.94-.193-17.911q-.03-3.337-.082-6.675a989 989 0 0 1-.089-9.621l-.062-2.99c-.003-7.224 1.456-12.528 6.164-18.096l1.664-1.352 1.648-1.398c4.799-2.978 9.295-3.465 14.852-3.352l3.492.055L333 64l.5-2.937c1.756-6.084 6.445-11.017 11.629-14.489 7.44-3.882 15.278-4.821 23.371-2.449 7.13 2.643 12.777 6.938 16.527 13.613C388.361 65.49 388.66 73.023 386 81c-3.259 7.634-8.646 12.552-16.055 16.047-7.121 2.304-15.009 2.12-21.945-.734-7.801-4.175-11.744-9.174-15-17.313v-2q-2.625.174-5.25.375l-2.953.21c-2.774.412-4.493.835-6.797 2.415-1.878 3.042-2.264 5.407-2.319 8.952l-.06 2.972-.035 3.185-.059 3.279c-.06 3.454-.106 6.908-.152 10.362l-.117 7.027Q315.115 124.39 315 133l2.302.898C327.707 138.148 336.62 144.623 345 152l2.516 2.113C358.812 163.83 367.37 175.278 375 188l1.141 1.9C379 194.753 379 194.753 379 197q10.358-.14 20.715-.317 3.525-.059 7.048-.105c3.376-.046 6.752-.104 10.128-.164l3.185-.035 2.972-.06 2.61-.04c2.544-.303 4.17-.939 6.342-2.279 2.125-3.099 2.361-6.056 2.625-9.75l.227-2.984L435 179l-1.758-.48c-8.163-2.439-12.91-5.938-17.242-13.52-3.06-7.794-3.61-17.09-.375-24.937 3.9-7.361 9.077-13.054 17.2-15.645 10.596-2.036 18.613-.055 27.425 5.707 6.234 6.518 9.139 14.529 8.95 23.453-.67 8.136-4.144 13.433-9.704 19.313-3.524 2.978-6.997 4.28-11.496 5.109l.105 2.563c.2 8.388-.355 13.956-4.793 21.187-5.469 5.321-11.03 6.706-18.537 6.703l-3.056-.062-3.194-.018c-3.342-.022-6.683-.072-10.025-.123q-3.414-.03-6.828-.055-8.337-.067-16.672-.195l1.03 3.321c2.53 8.289 4.744 16.363 5.783 24.992l.365 2.7c.49 3.724.822 7.22.822 10.987h50l1-5c3.25-7.241 8.553-11.542 15.375-15.312 8.334-2.183 16.142-2.384 23.977 1.468 6.635 3.995 11.187 9.462 13.648 16.844.784 9.245.743 17.294-5 25-5.442 5.948-11.921 9.512-19.996 10.16-8.255.33-14.432-1.53-20.817-6.848-3.974-3.759-6.176-7.241-8.187-12.312v-2h-50l-2 21c-1.638 6.96-3.325 13.408-6 20l1.73-.027c5.97-.089 11.94-.149 17.911-.193q3.337-.03 6.675-.082a989 989 0 0 1 9.622-.089l2.99-.062c7.223-.003 12.527 1.456 18.095 6.164l1.352 1.664 1.398 1.648c2.9 4.672 3.521 9.45 3.852 14.852l.227 3.492L449 333l1.688.559c7.565 2.875 13.046 7.52 16.476 14.968 2.813 8.532 2.637 16.27-1.164 24.473-4.014 6.953-9.368 11.456-17 14-8.553.626-16.629.946-24-4-2.812-2.437-2.812-2.437-5-5l-2.187-2.437c-4.795-6.779-4.539-14.581-3.813-22.563 1.788-6.678 5.443-12.876 11.473-16.477C432.313 333 432.313 333 435 333c-.167-8.597-.167-8.597-4-16-2.891-.964-4.827-1.151-7.839-1.205l-2.972-.06-3.2-.051-3.284-.063a5397 5397 0 0 0-10.392-.183l-7.042-.131q-8.635-.161-17.271-.307l-.914 2.334C367.159 344.16 342.088 365.94 317 379h-2q.14 10.358.317 20.715.058 3.525.105 7.048c.046 3.376.104 6.752.164 10.128l.035 3.185.06 2.972.04 2.61c.303 2.544.939 4.17 2.279 6.342 3.099 2.125 6.056 2.361 9.75 2.625l2.984.227L333 435l.48-1.758c2.439-8.163 5.938-12.91 13.52-17.242 7.754-3.045 17.047-3.61 24.875-.437 7.29 3.855 12.613 8.991 16.125 16.437 2.32 7.572 1.644 15.49-1.621 22.645-4.227 7.22-9.701 11.279-17.656 13.73-8.896 2.042-16.676.088-24.578-4.437-4.367-3.233-7.06-8.01-9.145-12.938v-3l-2.492.14c-8.103.263-15.799.014-22.164-5.6-6.473-7.415-6.495-15.147-6.442-24.532l.005-2.867c.005-3.005.018-6.01.03-9.016l.014-6.133q.017-7.496.049-14.992l-2.346.816c-5.843 1.996-11.517 3.769-17.591 4.872l-3.715.699c-5.75.81-11.558 1.168-17.348 1.613v50l7 2c6.619 4.479 12.272 10.023 14 18 1.088 8.997.484 16.582-5 24-5.237 5.785-10.6 9.553-18.422 10.348-9.263.362-16.428-.636-23.414-7.028-6.165-6.766-8.547-13.885-8.367-22.93.736-8.668 4.764-14.671 11.203-20.39 3.087-2.011 6.215-4 10-4v-50l-20-2c-3.667-.761-7.073-1.505-10.625-2.562l-2.422-.67c-5.508-1.545-5.508-1.545-7.953-2.768l.027 1.73c.089 5.97.149 11.94.193 17.911q.03 3.337.082 6.675c.049 3.207.071 6.414.089 9.622l.062 2.99c.003 7.23-1.481 12.484-6.129 18.095-7.35 6.07-15.08 6.4-24.324 6.977l-.559 1.688c-2.875 7.565-7.52 13.046-14.968 16.476-8.532 2.813-16.27 2.637-24.473-1.164-6.874-3.969-11.429-8.985-13.816-16.605-1.768-7.88-1.176-15.017 2.629-22.207 4.492-6.546 9.631-10.67 17.187-13.188 10.56-.828 17.482.392 26.25 6.125 3.605 3.769 7.75 9.423 7.75 14.875 8.597-.167 8.597-.167 16-4 .964-2.891 1.151-4.827 1.205-7.839l.06-2.972.051-3.2.063-3.284q.097-5.196.184-10.392l.13-7.042q.161-8.635.307-17.271l-2.773-.875c-3.983-1.389-7.238-3.322-10.79-5.562l-2.115-1.333c-6.975-4.494-13.22-9.624-19.322-15.23l-2.64-2.39C148.458 343.256 139.703 330.425 133 317v-2q-10.358.14-20.715.317-3.525.058-7.048.105c-3.376.046-6.752.104-10.128.164l-3.185.035-2.972.06-2.61.04c-2.543.303-4.17.94-6.342 2.279-2.246 3.217-2.374 6.402-2.625 10.25l-.227 3.266L77 334l2.5.125c7.759 1.94 12.217 7.27 16.371 13.824 3.612 6.561 3.291 15.928 1.293 23.016-3.295 7.177-8.632 12.683-15.852 15.973-7.128 2.245-15.334 2.248-22.25-.625C51.175 382.145 47.329 377.153 44 369c-2.512-8.362-1.002-16.346 3-24 4.548-6.231 9.514-9.337 17-11l-.105-2.562c-.2-8.389.355-13.957 4.792-21.188 5.47-5.321 11.031-6.706 18.538-6.703l3.056.062 3.194.018c3.342.022 6.683.072 10.025.123q3.414.03 6.828.055 8.337.067 16.672.195l-1.03-3.321c-2.53-8.289-4.744-16.363-5.782-24.991l-.366-2.702c-.49-3.723-.822-7.22-.822-10.986H69l-3 9c-4.662 6.823-10.449 10.7-18.55 12.598-8.862 1.199-16.086-.56-23.368-5.75-5.553-4.929-8.813-10.641-9.285-18.02-.11-8.454.406-14.129 4.765-21.453 6.16-6 13.05-9.477 21.626-9.625 9.238.147 15.126 2.683 21.859 9.05C66.057 241.19 69 245.3 69 250h50l2-21c1.638-6.96 3.325-13.408 6-20l-1.73.027c-5.97.089-11.94.149-17.911.193q-3.337.03-6.675.082a989 989 0 0 1-9.621.089l-2.99.062c-7.224.003-12.528-1.456-18.096-6.164l-1.352-1.664-1.398-1.648c-2.9-4.672-3.521-9.45-3.852-14.852l-.227-3.492L63 179l-1.687-.559c-7.521-2.858-12.777-7.496-16.477-14.71C41.635 155.188 42.385 147.262 46 139c3.593-6.787 9.67-11.687 17-14 10.204-.993 18.625-.398 26.75 6.25 7.336 8.966 9.163 16.111 8.25 27.75-1.77 6.675-5.454 12.882-11.473 16.477C79.687 179 79.687 179 77 179c.167 8.597.167 8.597 4 16 2.891.964 4.827 1.151 7.839 1.205l2.972.06 3.2.051 3.284.063q5.196.097 10.392.184l7.042.13q8.635.161 17.271.307l.87-2.769c.904-2.584 1.774-4.627 3.196-6.93l1.207-1.958 1.29-2.03c.446-.706.893-1.412 1.354-2.138 3.938-6.116 8.194-11.78 13.083-17.175l1.384-1.533C166.406 150.424 179.99 139.67 195 133h2q-.14-10.358-.317-20.715-.059-3.525-.105-7.048c-.046-3.376-.104-6.752-.164-10.128l-.035-3.185-.06-2.972-.04-2.61c-.303-2.543-.94-4.17-2.279-6.342-3.217-2.246-6.402-2.374-10.25-2.625l-3.266-.227L178 77l-.125 2.5c-1.929 7.715-7.237 12.192-13.727 16.371-6.718 3.53-15.9 3.356-23.043 1.293-7.353-3.366-11.845-8.519-16.042-15.289-2.575-7.014-2.228-16.034.624-22.875 4.458-8.329 10.339-12.884 19.36-15.621 6.877-1.334 13.734-.65 19.953 2.621 6.905 4.855 11.444 9.56 13 18l2.563-.105c8.388-.2 13.956.355 21.187 4.792 5.321 5.47 6.706 11.031 6.703 18.538l-.062 3.056-.018 3.194c-.022 3.342-.072 6.683-.123 10.025q-.03 3.414-.055 6.828-.067 8.337-.195 16.672l3.319-1.03c8.311-2.539 16.403-4.747 25.056-5.782l2.727-.366c3.334-.436 6.532-.822 9.898-.822V69l-6-2c-6.972-3.776-11.337-9.378-13.937-16.812-2.028-7.858-1.189-15.429 2.847-22.481 3.703-5.8 8.293-10.08 14.922-12.328 8.759-1.53 17.594-1.325 25.168 3.621" fill="#010100"/>
  <path d="M312.75 189.313C328.072 202.517 339.249 221.828 342 242c.269 4.483.28 8.947.25 13.438l.023 3.486c-.024 10.995-1.56 20.548-5.96 30.639l-1.077 2.497c-2.752 6.209-5.854 11.72-10.236 16.94l-2.121 2.535C309.067 327.405 290.475 339.972 269 342c-28.38 1.379-51.42-3.268-73.023-22.68-15.633-14.567-26.547-35.256-27.41-56.87a344 344 0 0 1-.005-6.762l.028-3.6c.177-8.977 1.059-16.681 4.41-25.088l.813-2.05c4.28-10.524 9.75-19.386 17.187-27.95l1.957-2.262c31.391-33.638 85.34-34.047 119.793-5.425" fill="#F2B050"/>
  <path d="M240 196c1.676 1.2 1.676 1.2 3 3 .293 2.48.293 2.48.188 5.188l-.083 2.73L243 209h9l-.105-2.082-.083-2.73-.105-2.708c.293-2.48.293-2.48 1.617-4.28 2.595-1.857 4.582-1.587 7.676-1.2 1.676 1.168 1.676 1.168 3 3 .293 2.7.293 2.7.188 5.688l-.083 3.011L264 210l1.688.227c7.982 1.375 13.431 4.944 18.25 11.46 4.12 6.618 4.159 14.705 3.062 22.313-1.453 3.816-3.21 7.006-6 10l-3 1v2c.905.38.905.38 1.828.77 4.073 2.307 5.687 5.902 7.172 10.23 1.269 9.224.643 17.39-5 25-4.265 4.866-8.859 7.158-15 9h-3l.105 2.3.082 3.012.106 2.989C264 313 264 313 262.676 314.828c-2.63 1.84-4.566 1.626-7.676 1.172-1.875-1.437-1.875-1.437-3-4-.236-3.048-.135-5.933 0-9h-9l.105 2.082.083 2.73.105 2.708C243 313 243 313 241.676 314.797c-2.623 1.883-4.55 1.659-7.676 1.203-1.875-1.437-1.875-1.437-3-4-.234-3.018-.174-5.98 0-9l-2.25.25c-2.75-.25-2.75-.25-4.89-1.748-2.585-3.477-2.42-6.62-2.378-10.787l-.02-2.524c-.018-2.752-.007-5.502.007-8.253l-.012-5.739q-.008-6.012.022-12.024c.022-5.139.01-10.276-.015-15.415-.014-3.95-.01-7.899 0-11.849q.005-2.841-.01-5.683c-.01-2.648.006-5.295.028-7.943l-.024-2.374c.055-3.534.266-5.54 2.402-8.413 2.584-1.81 4.05-1.841 7.14-1.498l-.105-2.082-.083-2.73-.105-2.708c.293-2.48.293-2.48 1.617-4.28 2.595-1.857 4.582-1.587 7.676-1.2" fill="#070502"/>
  <path d="M190 329c9 6 9 6 13.125 8.938C217.719 347.574 232.959 350.902 250 354v27c-16.118 0-32.468-4.015-47-11l-1.852-.886a148 148 0 0 1-20.898-12.364l-1.772-1.249c-3.18-2.32-5.063-4.281-7.478-7.501z" fill="#FBC964"/>
  <path d="M262 131c5.23 0 9.705.308 14.75 1.313l2.133.418c20.382 4.09 48.955 13.026 61.117 31.269q-3.9 4.193-7.812 8.375l-2.237 2.406-2.158 2.305-1.984 2.126C324 181 324 181 321 183l-2.062-1.687C302.027 168 283.139 161.293 262 158z" fill="#FCC964"/>
  <path d="M131 262h27l1.5 9.313c3.357 18.728 11.51 35 23.5 49.687-3.857 4.714-7.972 9.108-12.25 13.438l-1.61 1.649c-1.341 1.344-2.737 2.634-4.14 3.913h-2a107 107 0 0 1-5.125-6.125l-1.487-1.907C141.407 312.324 131 286.906 131 262" fill="#FCCA65"/>
  <path d="M321 329c4.714 3.857 9.108 7.972 13.438 12.25l1.649 1.61c1.344 1.341 2.634 2.737 3.913 4.14v2c-21.206 19.177-49.476 31-78 31v-26l10.563-2.125c18.3-3.885 33.93-10.823 48.437-22.875m-70-197v26l-7.562 1.188c-17.81 3.047-33.937 9.681-48.012 21.09C193 182 193 182 190 182c-1.901-1.56-1.901-1.56-4.012-3.719l-2.295-2.324-2.38-2.457-2.417-2.457A1282 1282 0 0 1 173 165c1.858-4.17 4.565-6.206 8.25-8.75.623-.435 1.247-.87 1.889-1.32C203.769 140.737 225.73 132 251 132m103 130h28c-2.815 28.148-12.219 54.507-31 76l-3 2-18-18c6-9 6-9 8.09-12.09 9.83-15.152 13.776-30.087 15.91-47.91" fill="#FCC964"/>
  <path d="M163 172c6.784 5.55 12.855 11.764 19 18-2.037 3.06-4.08 6.117-6.148 9.156C165.206 215.006 159.898 231.02 158 250h-27c0-7.767.228-13.818 2.063-21.125l.674-2.737c4.997-19.365 14.507-40.22 29.263-54.138" fill="#FCCA65"/>
  <path d="M347 173c4.17 1.858 6.206 4.565 8.75 8.25.435.623.87 1.247 1.32 1.889C371.215 203.699 380 225.78 380 251h-26l-1.187-7.562c-3.048-17.81-9.682-33.937-21.09-48.012C330 193 330 193 330 190c1.56-1.901 1.56-1.901 3.719-4.012l2.324-2.295 2.457-2.38 2.457-2.417A1282 1282 0 0 1 347 173" fill="#FBC964"/>
  <path d="m236 261 13.625-.187 4.264-.083 3.4-.023 3.46-.048c5.052.53 8.298 2.533 12.126 5.779 2.978 3.845 2.755 8.019 2.55 12.71-.606 4.067-1.603 5.873-4.425 8.852-3.613 2.426-6.902 2.23-11.172 2.195l-2.068-.008a986 986 0 0 1-6.51-.062q-2.212-.016-4.426-.027c-3.608-.02-7.216-.06-10.824-.098z" fill="#F1B050"/>
  <path d="m237 221 13.625-.187 4.264-.083 3.4-.023 3.46-.048c4.96.52 8.192 2.196 11.563 5.841 2.88 4.266 3.367 8.462 2.688 13.5-2.436 4.872-5.294 7.346-10 10-3.343.454-3.343.454-6.93.39l-3.523-.03-4.422-.11L237 250z" fill="#F3B150"/>
  <path d="M50.313 241.688c4.427 3.81 7.49 7.033 8 12.937-.079 4.791-1.506 8.504-4.313 12.375-5.23 4.163-9.329 5.556-16 5-5.36-1.958-8.228-4.989-11-10-1.411-4.234-1.89-7.863-.129-12.094 5.098-8.958 13.75-13.156 23.442-8.219m424.816-1.074c5.512 2.375 8.605 5.843 10.871 11.387.93 5.784-.66 10.302-4 15-5.23 4.163-9.329 5.556-16 5-4.83-1.855-8.166-4.64-11-9-1.542-3.726-1.551-8.035-1-12 4.48-8.628 11.506-13.159 21.129-10.387M260 454c4.492 1.754 7.884 4.308 10.5 8.375 1.917 4.632 2.417 7.885.805 12.703-2.142 4.858-4.522 7.378-9.305 9.922-4.236 1.412-7.844 1.86-12.094.164-5.28-2.935-8.187-6.353-9.906-12.164-.77-4.278-.347-7.332 1.688-11.25 5.421-6.448 9.984-8.906 18.312-7.75" fill="#83D08B"/>
  <path d="M366 426c4.199 1.72 6.429 4.152 8.938 7.875 1.794 5.277 1.675 9.271-.625 14.313-2.257 4.143-5.082 6.697-9.313 8.812-4.955.544-8.871.564-13.375-1.687-3.476-3.063-7.204-6.414-7.898-11.196-.248-5.456.727-8.818 3.691-13.39 5.198-5.674 11.35-5.742 18.582-4.727" fill="#80CFF1"/>
  <path d="M261.074 26.734c4.401 1.985 7.271 4.124 9.926 8.266 1.701 5.103 1.565 9.319-.687 14.188-2.476 4.53-5.373 7.165-10.313 8.812-5.823.592-9.394-.01-14.234-3.383-4.033-3.694-5.52-7.858-6.266-13.18.746-5.13 2.41-8.638 6.3-11.988 5.027-3.465 9.261-4.844 15.274-2.715" fill="#83D08B"/>
  <path d="M76.164 344.684c4.77 2.152 7.719 4.375 9.836 9.316.733 5.561.724 10.31-1.5 15.5-4.191 4.191-8.234 6.226-14.125 6.938-5.32-.69-8.729-2.447-12.187-6.5-3.69-4.954-3.862-8.858-3.188-14.938 4.296-8.591 11.679-13.313 21.164-10.316" fill="#80D0F1"/>
  <path d="M448.188 137.688c4.143 2.256 6.697 5.081 8.812 9.312.544 4.955.564 8.871-1.687 13.375-3.063 3.476-6.414 7.204-11.196 7.898-6.274.285-10.382-1.094-15.117-5.273-3.845-5.047-3.8-10.898-3-17 4.174-9.182 12.999-12.482 22.188-8.312" fill="#80CFF1"/>
  <path d="M157 55c4.987 2.493 8.497 5.994 11 11 .54 6.263-.188 10.872-4 16-4.935 4.029-9.092 4.652-15.414 4.375-3.838-.557-5.812-1.669-8.586-4.375-3.33-4.813-4.767-9.087-4-15 3.55-9.86 11.096-13.097 21-12" fill="#80D0F1"/>
  <path d="M159.125 425.66c4.582 2.281 7.257 5.593 8.875 10.34.902 5.297-.019 9.528-3 14-3.997 4.04-7.59 6.125-13.312 6.313-4.63-.06-7.125-1.247-10.688-4.313-4.024-4.46-5.378-7.791-5.277-13.875.65-4.986 3.283-8.18 6.84-11.562 5.386-2.449 10.878-2.669 16.562-.903M75 136c5.297 1.801 9.376 5.039 12 10 .998 5.143.778 10.166-1.5 14.938-3.523 4.315-7.092 6.443-12.586 7.44-5.124.305-8.066-1.142-11.914-4.378-4.136-4.583-5.277-7.793-5.14-14.016.341-4.82 2.104-7.132 5.64-10.234 4.412-3.627 7.774-4.318 13.5-3.75m372.188 209.125c3.884 2.59 6.699 5.648 8.812 9.875.59 5.679.294 10.17-3 15-2.87 2.967-5.759 5.614-10 6l-3.375.313c-5.505-.475-8.353-2.87-11.937-6.938-3.472-4.886-3.4-9.506-2.688-15.375 1.717-4.121 4.174-6.43 7.813-8.937 5.18-1.727 9.219-1.758 14.375.062" fill="#FA6464"/>
  <path d="M364 56c5.273 1.825 7.797 4.607 11 9 1.554 4.663 1.544 8.488-.125 13.125-2.568 3.938-5.617 6.746-9.875 8.875-5.176.516-9.631.597-14.437-1.5-4.254-4.15-6.718-8.62-7.063-14.625.727-5.636 2.922-8.485 7.125-12.187 4.452-3.164 8.021-3.176 13.375-2.688" fill="#FB6464"/></svg>